<svg id="Layer_1" data-name="Layer 1" xmlns="http://www.w3.org/2000/svg" xmlns:xlink="http://www.w3.org/1999/xlink" viewBox="0 0 153.9 83.6062"><defs><style>.cls-1{fill:#a5ff17;fill-opacity:0.05;}.cls-2{fill:url(#linear-gradient);}</style><linearGradient id="linear-gradient" y1="955.8031" x2="153.9" y2="955.8031" gradientTransform="translate(0 -914)" gradientUnits="userSpaceOnUse"><stop offset="0" stop-color="#ae81ff"/><stop offset="1" stop-color="#e83e8c"/></linearGradient></defs><title>404-a</title><g id="Layer_1-2" data-name="Layer 1"><g id="_4" data-name="4"><g id="_8" data-name="8"><path id="f" class="cls-1" d="M108,73.5776V48.1224a1.5026,1.5026,0,0,1,.44-1.0625l2.3111-2.3111a1.5026,1.5026,0,0,1,2.1111-.0137l2.3837,2.3226a1.5026,1.5026,0,0,1,.454,1.0762V73.5661a1.5026,1.5026,0,0,1-.454,1.0762l-2.3837,2.3226a1.5026,1.5026,0,0,1-2.1111-.0137L108.44,74.64A1.5026,1.5026,0,0,1,108,73.5776Z"/><path id="f-2" data-name="f" class="cls-1" d="M118.1224,0h25.4552A1.5026,1.5026,0,0,1,144.64.44l2.2974,2.2974a1.5026,1.5026,0,0,1,0,2.125L144.64,7.16a1.5026,1.5026,0,0,1-1.0625.44H118.1224a1.5026,1.5026,0,0,1-1.0625-.44l-2.2974-2.2974a1.5026,1.5026,0,0,1,0-2.125L117.06.44A1.5026,1.5026,0,0,1,118.1224,0Z"/><path id="f-3" data-name="f" class="cls-1" d="M118.1224,76h25.4552a1.5026,1.5026,0,0,1,1.0625.44l2.2974,2.2974a1.5026,1.5026,0,0,1,0,2.125L144.64,83.16a1.5026,1.5026,0,0,1-1.0625.44H118.1224a1.5026,1.5026,0,0,1-1.0625-.44l-2.2974-2.2974a1.5026,1.5026,0,0,1,0-2.125L117.06,76.44A1.5026,1.5026,0,0,1,118.1224,76Z"/></g></g><g id="_0" data-name="0"><g id="_8-2" data-name="8"><path id="a" class="cls-1" d="M68.1224,37.8H93.5776a1.5026,1.5026,0,0,1,1.0625.44l2.2974,2.2974a1.5026,1.5026,0,0,1,0,2.125L94.64,44.96a1.5026,1.5026,0,0,1-1.0625.44H68.1224a1.5026,1.5026,0,0,1-1.0625-.44l-2.2974-2.2974a1.5026,1.5026,0,0,1,0-2.125L67.06,38.24A1.5026,1.5026,0,0,1,68.1224,37.8Z"/></g></g><g id="_4-2" data-name="4"><g id="_8-3" data-name="8"><path id="f-4" data-name="f" class="cls-1" d="M0,73.5776V48.1224A1.5026,1.5026,0,0,1,.44,47.06l2.3111-2.3111a1.5026,1.5026,0,0,1,2.1111-.0137L7.246,47.0577A1.5026,1.5026,0,0,1,7.7,48.1339V73.5661a1.5026,1.5026,0,0,1-.454,1.0762L4.8623,76.9649a1.5026,1.5026,0,0,1-2.1111-.0137L.44,74.64A1.5026,1.5026,0,0,1,0,73.5776Z"/><path id="f-5" data-name="f" class="cls-1" d="M10.1224,0H35.5776A1.5026,1.5026,0,0,1,36.64.44l2.2974,2.2974a1.5026,1.5026,0,0,1,0,2.125L36.64,7.16a1.5026,1.5026,0,0,1-1.0625.44H10.1224A1.5026,1.5026,0,0,1,9.06,7.16L6.7625,4.8625a1.5026,1.5026,0,0,1,0-2.125L9.06.44A1.5026,1.5026,0,0,1,10.1224,0Z"/><path id="f-6" data-name="f" class="cls-1" d="M10.1224,76H35.5776a1.5026,1.5026,0,0,1,1.0625.44l2.2974,2.2974a1.5026,1.5026,0,0,1,0,2.125L36.64,83.16a1.5026,1.5026,0,0,1-1.0625.44H10.1224A1.5026,1.5026,0,0,1,9.06,83.16L6.7625,80.8625a1.5026,1.5026,0,0,1,0-2.125L9.06,76.44A1.5026,1.5026,0,0,1,10.1224,76Z"/></g></g></g><g id="Layer_2" data-name="Layer 2"><path class="cls-2" d="M146.3125,35.3787V9.9213a1.5013,1.5013,0,0,1,.4386-1.0607l2.2962-2.3a1.4958,1.4958,0,0,1,2.1178,0l2.2962,2.3A1.5013,1.5013,0,0,1,153.9,9.9213V35.3787a1.5013,1.5013,0,0,1-.4386,1.0607l-2.2962,2.3a1.4958,1.4958,0,0,1-2.1178,0l-2.2962-2.3A1.5013,1.5013,0,0,1,146.3125,35.3787Zm-33.1518,3.3607,2.3-2.3a1.5,1.5,0,0,0,.4393-1.0607V9.9213a1.5,1.5,0,0,0-.4393-1.0607l-2.3-2.3a1.5,1.5,0,0,0-2.1213,0l-2.3,2.3A1.5,1.5,0,0,0,108.3,9.9213V35.3787a1.5,1.5,0,0,0,.4393,1.0607l2.3,2.3A1.5,1.5,0,0,0,113.1607,38.7393Zm38,38.2,2.3-2.3a1.5,1.5,0,0,0,.4393-1.0607V48.1213a1.5,1.5,0,0,0-.4393-1.0607l-2.3-2.3a1.5,1.5,0,0,0-2.1213,0l-2.3,2.3a1.5,1.5,0,0,0-.4393,1.0607V73.5787a1.5,1.5,0,0,0,.4393,1.0607l2.3,2.3A1.5,1.5,0,0,0,151.1607,76.9393ZM118.2213,45.5h25.4574a1.5,1.5,0,0,0,1.0607-.4393l2.3-2.3a1.5,1.5,0,0,0,0-2.1213l-2.3-2.3a1.5,1.5,0,0,0-1.0607-.4393H118.2213a1.5,1.5,0,0,0-1.0607.4393l-2.3,2.3a1.5,1.5,0,0,0,0,2.1213l2.3,2.3A1.5,1.5,0,0,0,118.2213,45.5Zm-50-37.9H93.6787a1.5,1.5,0,0,0,1.0607-.4393l2.3-2.3a1.5,1.5,0,0,0,0-2.1213l-2.3-2.3A1.5,1.5,0,0,0,93.6787,0H68.2213a1.5,1.5,0,0,0-1.0607.4393l-2.3,2.3a1.5,1.5,0,0,0,0,2.1213l2.3,2.3A1.5,1.5,0,0,0,68.2213,7.6Zm32.9393,31.1393,2.3-2.3a1.5,1.5,0,0,0,.4393-1.0607V9.9213a1.5,1.5,0,0,0-.4393-1.0607l-2.3-2.3a1.5,1.5,0,0,0-2.1213,0l-2.3,2.3A1.5,1.5,0,0,0,96.3,9.9213V35.3787a1.5,1.5,0,0,0,.4393,1.0607l2.3,2.3A1.5,1.5,0,0,0,101.1607,38.7393Zm0,38.2,2.3-2.3a1.5,1.5,0,0,0,.4393-1.0607V48.1213a1.5,1.5,0,0,0-.4393-1.0607l-2.3-2.3a1.5,1.5,0,0,0-2.1213,0l-2.3,2.3A1.5,1.5,0,0,0,96.3,48.1213V73.5787a1.5,1.5,0,0,0,.4393,1.0607l2.3,2.3A1.5,1.5,0,0,0,101.1607,76.9393Zm-38-38.2,2.3-2.3A1.5,1.5,0,0,0,65.9,35.3787V9.9213a1.5,1.5,0,0,0-.4393-1.0607l-2.3-2.3a1.5,1.5,0,0,0-2.1213,0l-2.3,2.3A1.5,1.5,0,0,0,58.3,9.9213V35.3787a1.5,1.5,0,0,0,.4393,1.0607l2.3,2.3A1.5,1.5,0,0,0,63.1607,38.7393Zm0,38.2,2.3-2.3A1.5,1.5,0,0,0,65.9,73.5787V48.1213a1.5,1.5,0,0,0-.4393-1.0607l-2.3-2.3a1.5,1.5,0,0,0-2.1213,0l-2.3,2.3A1.5,1.5,0,0,0,58.3,48.1213V73.5787a1.5,1.5,0,0,0,.4393,1.0607l2.3,2.3A1.5,1.5,0,0,0,63.1607,76.9393Zm5.049,6.6669h25.469a1.51,1.51,0,0,0,1.0607-.4339l2.3-2.2716a1.4686,1.4686,0,0,0,0-2.0952l-2.3-2.2716A1.51,1.51,0,0,0,93.6787,76.1H68.2328a1.5093,1.5093,0,0,0-1.0743.4476L64.8472,78.89a1.4686,1.4686,0,0,0,.0279,2.0953l2.2881,2.2A1.51,1.51,0,0,0,68.21,83.6062ZM55.3,34.2v-3a1.5,1.5,0,0,0-1.5-1.5h-3a1.5,1.5,0,0,0-1.5,1.5v3a1.5,1.5,0,0,0,1.5,1.5h3A1.5,1.5,0,0,0,55.3,34.2Zm0,15v-3a1.5,1.5,0,0,0-1.5-1.5h-3a1.5,1.5,0,0,0-1.5,1.5v3a1.5,1.5,0,0,0,1.5,1.5h3A1.5,1.5,0,0,0,55.3,49.2ZM43.1607,38.7393l2.3-2.3A1.5,1.5,0,0,0,45.9,35.3787V9.9213a1.5,1.5,0,0,0-.4393-1.0607l-2.3-2.3a1.5,1.5,0,0,0-2.1213,0l-2.3,2.3A1.5,1.5,0,0,0,38.3,9.9213V35.3787a1.5,1.5,0,0,0,.4393,1.0607l2.3,2.3A1.5,1.5,0,0,0,43.1607,38.7393Zm-38.236,0,2.33-2.3A1.49,1.49,0,0,0,7.7,35.3787V9.9213a1.49,1.49,0,0,0-.4451-1.0607l-2.33-2.3a1.5339,1.5339,0,0,0-2.1492,0l-2.33,2.3A1.49,1.49,0,0,0,0,9.9213V35.3787a1.49,1.49,0,0,0,.4451,1.0607l2.33,2.3A1.5339,1.5339,0,0,0,4.9246,38.7393Zm38.236,38.2,2.3-2.3A1.5,1.5,0,0,0,45.9,73.5787V48.1213a1.5,1.5,0,0,0-.4393-1.0607l-2.3-2.3a1.5,1.5,0,0,0-2.1213,0l-2.3,2.3A1.5,1.5,0,0,0,38.3,48.1213V73.5787a1.5,1.5,0,0,0,.4393,1.0607l2.3,2.3A1.5,1.5,0,0,0,43.1607,76.9393ZM10.2213,45.5H35.6787a1.5,1.5,0,0,0,1.0607-.4393l2.3-2.3a1.5,1.5,0,0,0,0-2.1213l-2.3-2.3A1.5,1.5,0,0,0,35.6787,37.9H10.2213a1.5,1.5,0,0,0-1.0607.4393l-2.3,2.3a1.5,1.5,0,0,0,0,2.1213l2.3,2.3A1.5,1.5,0,0,0,10.2213,45.5Z"/></g></svg>